<svg width="529" height="591" viewBox="0 0 529 591" fill="none" xmlns="http://www.w3.org/2000/svg">
<path d="M48 429.624C51.392 429.624 55.296 430.104 59.712 431.064C64.192 432.024 67.456 433.048 69.504 434.136V452.76H65.856C59.968 442.712 52.16 437.688 42.432 437.688C38.208 437.688 34.336 438.936 30.816 441.432C27.36 443.864 24.64 447.288 22.656 451.704C20.672 456.056 19.68 460.952 19.68 466.392C19.68 472.664 20.64 478.392 22.56 483.576C24.544 488.76 27.52 492.92 31.488 496.056C35.52 499.192 40.48 500.76 46.368 500.76C51.808 500.76 59.616 496.664 69.792 488.472L72.672 493.08L55.008 506.808C52.64 507.64 50.336 508.184 48.096 508.44C45.92 508.76 43.552 508.92 40.992 508.92C34.272 508.92 28.32 507.288 23.136 504.024C17.952 500.76 13.92 496.28 11.04 490.584C8.16 484.824 6.72 478.296 6.72 471C6.72 463.512 8.896 456.6 13.248 450.264C17.6 443.864 23.008 438.84 29.472 435.192C35.936 431.48 42.112 429.624 48 429.624ZM126.75 429.624C133.534 429.624 139.518 431.256 144.702 434.52C149.95 437.784 154.014 442.296 156.894 448.056C159.774 453.816 161.214 460.344 161.214 467.64C161.214 475.128 159.038 482.04 154.686 488.376C150.334 494.712 144.926 499.736 138.462 503.448C131.998 507.096 125.822 508.92 119.934 508.92C113.15 508.92 107.134 507.32 101.886 504.12C96.702 500.856 92.67 496.344 89.79 490.584C86.91 484.824 85.47 478.296 85.47 471C85.47 463.512 87.646 456.6 91.998 450.264C96.35 443.864 101.758 438.84 108.222 435.192C114.686 431.48 120.862 429.624 126.75 429.624ZM121.182 437.688C116.958 437.688 113.086 438.936 109.566 441.432C106.11 443.864 103.39 447.288 101.406 451.704C99.422 456.056 98.43 460.952 98.43 466.392C98.43 472.664 99.422 478.424 101.406 483.672C103.39 488.856 106.398 493.016 110.43 496.152C114.526 499.288 119.55 500.856 125.502 500.856C129.726 500.856 133.566 499.64 137.022 497.208C140.542 494.712 143.294 491.288 145.278 486.936C147.262 482.52 148.254 477.592 148.254 472.152C148.254 465.816 147.262 460.056 145.278 454.872C143.294 449.624 140.286 445.464 136.254 442.392C132.222 439.256 127.198 437.688 121.182 437.688ZM238.85 441.72V507.096H233.57L187.97 449.4V498.168L198.05 503.256L196.13 507.096H173.666V504.12L182.69 497.016V440.76L172.706 435.384L174.626 431.544H189.122L233.57 487.8V440.376L223.586 435.384L225.506 431.544H247.97V434.616L238.85 441.72ZM319.493 451.896L316.613 452.856L305.189 435.864H278.693V466.296H293.765L300.773 454.008H303.749V480.312L299.909 482.232L294.053 470.616H278.597V499.032L293.477 503.16L291.557 507H257.573V504.024L266.597 496.92V438.744L256.613 435.384L258.533 431.544H314.213L319.493 429.816V451.896ZM361.1 507H331.916V504.024L340.94 496.92V438.744L330.956 435.384L332.876 431.544H362.06V434.52L352.94 441.624V499.704L363.02 503.16L361.1 507ZM449.381 507H420.197V504.024L429.221 497.016L421.829 479.256H389.573L381.701 497.4L398.597 503.16L396.677 507H367.493V504.024L376.517 496.92L403.685 434.616L413.669 429.72L441.701 497.304L451.301 503.16L449.381 507ZM406.085 441.24L391.493 474.936H420.101L406.085 441.24ZM505.389 479.352V498.84H501.453V479.352H481.965V475.416H501.453V455.928H505.389V475.416H524.877V479.352H505.389Z" fill="#01497C"/>
<path d="M201.86 333.895C156.843 312.044 175.246 271.829 190.075 254.453C184.631 208.456 159.716 125.358 103.604 160.935C47.4915 196.513 116.211 296.718 157.585 342.373C191.1 348.651 246.878 355.746 201.86 333.895Z" fill="#D9D9D9"/>
<path d="M153.012 125.773C181.49 156.842 249.837 230.631 281.162 213.155C316.363 193.517 322.673 121.604 313.775 79.1691C300.056 103.442 266.923 146.162 244.141 122.86C221.359 99.5582 173.896 122.86 153.012 125.773Z" fill="#D9D9D9"/>
<path d="M74.3247 185.663C54.8962 349.409 225.005 385.645 290.757 360.99C140.076 333.595 131.824 248.368 129.118 224.015C126.378 199.36 129.118 163.747 140.076 196.621C152.205 233.005 312.674 399.343 386.645 292.503C445.821 207.031 414.041 115.92 351.029 87.041C372.946 97.0858 401.987 132.517 342.81 193.881C283.634 255.246 167.473 169.226 181.171 133.612C211.307 139.091 253.429 168.541 285.278 147.31C334.591 114.436 356.509 81.562 298.976 56.9067C235.964 29.9031 93.5022 24.0328 74.3247 185.663Z" fill="url(#paint0_linear_77_40)"/>
<path d="M316.322 251.933C319.679 245.083 331.379 243.928 342.456 249.354C353.531 254.781 359.793 264.735 356.438 271.586C353.08 278.434 341.375 279.589 330.298 274.164C319.223 268.738 312.967 258.784 316.322 251.933Z" fill="#D9D9D9"/>
<path d="M112.182 123.277V0H133.103V123.277H112.182ZM61 72.0984V51.1786H184.284V72.0984H61Z" fill="white"/>
<path d="M27.1 535.52L26.5 535.72L24.12 532.18H18.6V538.52H21.74L23.2 535.96H23.82V541.44L23.02 541.84L21.8 539.42H18.58V545.34L21.68 546.2L21.28 547H14.2V546.38L16.08 544.9V532.78L14 532.08L14.4 531.28H26L27.1 530.92V535.52ZM34.2013 547.04C33.6679 547.147 33.0279 547.2 32.2813 547.2C31.4013 547.2 30.6079 546.973 29.9013 546.52C29.2079 546.053 28.6613 545.427 28.2613 544.64C27.8746 543.853 27.6813 542.987 27.6813 542.04C27.6813 541.013 27.9946 540.053 28.6213 539.16C29.2479 538.253 30.0279 537.533 30.9613 537C31.9079 536.453 32.8213 536.18 33.7013 536.18C34.9679 536.18 35.9479 536.68 36.6413 537.68C37.3479 538.68 37.7013 540 37.7013 541.64H30.3013C30.3813 542.773 30.6879 543.7 31.2213 544.42C31.7679 545.14 32.5079 545.5 33.4413 545.5C34.3079 545.5 35.5413 544.827 37.1413 543.48L37.7413 544.24L34.2013 547.04ZM32.5413 537.86C31.1013 537.86 30.3479 538.847 30.2813 540.82H34.9613C34.8413 540.1 34.7146 539.553 34.5813 539.18C34.4613 538.793 34.2413 538.48 33.9213 538.24C33.6146 537.987 33.1546 537.86 32.5413 537.86ZM45.8128 547H40.2328V546.38L42.0128 544.98V539.14L40.2328 537.9V537.28L43.6528 536H44.4128V545.5L46.2128 546.2L45.8128 547ZM43.1328 530C43.5328 530 43.8595 530.147 44.1128 530.44C44.3795 530.733 44.5128 531.1 44.5128 531.54C44.5128 531.847 44.4195 532.14 44.2328 532.42C44.0461 532.687 43.8128 532.9 43.5328 533.06C43.2528 533.22 42.9795 533.3 42.7128 533.3C42.3128 533.3 41.9795 533.153 41.7128 532.86C41.4595 532.567 41.3328 532.2 41.3328 531.76C41.3328 531.453 41.4261 531.167 41.6128 530.9C41.7995 530.62 42.0328 530.4 42.3128 530.24C42.5928 530.08 42.8661 530 43.1328 530ZM53.7063 547.04C53.3996 547.147 53.0263 547.2 52.5863 547.2C51.4796 547.2 50.6663 546.913 50.1463 546.34C49.6396 545.753 49.3863 544.853 49.3863 543.64V537.8H47.2263V536.98L51.0263 532.56H51.7863V536.98H55.3863V537.8H51.7863V543.88C51.7863 544.96 52.3063 545.5 53.3463 545.5C53.6263 545.5 53.8929 545.44 54.1463 545.32C54.4129 545.2 54.7396 544.987 55.1263 544.68L55.7263 545.44L53.7063 547.04ZM63.252 536.18C64.132 536.18 64.9187 536.413 65.612 536.88C66.3187 537.333 66.8654 537.953 67.252 538.74C67.652 539.527 67.852 540.393 67.852 541.34C67.852 542.367 67.5387 543.333 66.912 544.24C66.2854 545.133 65.4987 545.853 64.552 546.4C63.6187 546.933 62.712 547.2 61.832 547.2C60.952 547.2 60.1587 546.973 59.452 546.52C58.7587 546.053 58.212 545.427 57.812 544.64C57.4254 543.853 57.232 542.987 57.232 542.04C57.232 541.013 57.5454 540.053 58.172 539.16C58.7987 538.253 59.5787 537.533 60.512 537C61.4587 536.453 62.372 536.18 63.252 536.18ZM62.092 537.86C60.5854 537.86 59.832 538.933 59.832 541.08C59.832 542.347 60.1054 543.407 60.652 544.26C61.1987 545.1 61.9787 545.52 62.992 545.52C64.4987 545.52 65.252 544.44 65.252 542.28C65.252 541.027 64.9787 539.98 64.432 539.14C63.8854 538.287 63.1054 537.86 62.092 537.86ZM82.1159 547.22C81.3959 547.22 80.7293 547 80.1159 546.56V550.44L82.9159 551.3L82.5159 552.1H75.9359V551.48L77.7159 550.08V539.34L75.9359 538.3V537.68L79.3559 536L80.0159 538.6L82.8759 536.34C83.3026 536.233 83.7893 536.18 84.3359 536.18C85.0559 536.18 85.7026 536.413 86.2759 536.88C86.8626 537.333 87.3159 537.953 87.6359 538.74C87.9693 539.527 88.1359 540.393 88.1359 541.34C88.1359 542.367 87.8226 543.333 87.1959 544.24C86.5693 545.133 85.7826 545.853 84.8359 546.4C83.9026 546.933 82.9959 547.2 82.1159 547.2V547.22ZM83.3159 538.1C82.8093 538.1 82.3159 538.2 81.8359 538.4C81.3559 538.6 80.7826 538.993 80.1159 539.58V542.96C80.1159 543.693 80.3893 544.307 80.9359 544.8C81.4826 545.293 82.2626 545.54 83.2759 545.54C84.7826 545.54 85.5359 544.467 85.5359 542.32C85.5359 541.133 85.3426 540.133 84.9559 539.32C84.5693 538.507 84.0226 538.1 83.3159 538.1ZM101.063 547H97.263V545.26L95.003 547.04C94.7363 547.147 94.403 547.2 94.003 547.2C92.8563 547.2 92.023 546.913 91.503 546.34C90.9963 545.767 90.743 545.08 90.743 544.28C90.743 543.8 90.9163 543.327 91.263 542.86C91.6096 542.393 92.103 541.953 92.743 541.54H97.263V540.26C97.263 539.393 97.0296 538.78 96.563 538.42C96.1096 538.06 95.483 537.88 94.683 537.88C93.8563 537.88 92.843 538.38 91.643 539.38L91.043 538.62L93.923 536.34C94.4563 536.233 95.0963 536.18 95.843 536.18C97.0563 536.18 97.9963 536.48 98.663 537.08C99.3296 537.667 99.663 538.527 99.663 539.66V545.5L101.463 546.2L101.063 547ZM94.643 545.5C95.4563 545.5 96.3296 545.127 97.263 544.38V542.36H93.723C93.5496 542.573 93.423 542.787 93.343 543C93.2763 543.213 93.243 543.447 93.243 543.7C93.243 544.193 93.3696 544.62 93.623 544.98C93.8763 545.327 94.2163 545.5 94.643 545.5ZM110.285 536.2C110.725 536.2 111.112 536.32 111.445 536.56C111.778 536.8 112.038 537.133 112.225 537.56L110.905 539.22H110.145C110.092 538.887 109.992 538.653 109.845 538.52C109.712 538.373 109.525 538.3 109.285 538.3C108.992 538.3 108.678 538.38 108.345 538.54C108.025 538.687 107.658 538.973 107.245 539.4V545.36L110.045 546.22L109.645 547.02H103.065V546.4L104.845 545V539.34L103.065 538.3V537.68L106.485 536L107.105 538.46L109.185 536.34C109.465 536.233 109.832 536.18 110.285 536.18V536.2ZM123.661 547H119.861V545.26L117.601 547.04C117.334 547.147 117.001 547.2 116.601 547.2C115.454 547.2 114.621 546.913 114.101 546.34C113.594 545.767 113.341 545.08 113.341 544.28C113.341 543.8 113.514 543.327 113.861 542.86C114.207 542.393 114.701 541.953 115.341 541.54H119.861V540.26C119.861 539.393 119.627 538.78 119.161 538.42C118.707 538.06 118.081 537.88 117.281 537.88C116.454 537.88 115.441 538.38 114.241 539.38L113.641 538.62L116.521 536.34C117.054 536.233 117.694 536.18 118.441 536.18C119.654 536.18 120.594 536.48 121.261 537.08C121.927 537.667 122.261 538.527 122.261 539.66V545.5L124.061 546.2L123.661 547ZM117.241 545.5C118.054 545.5 118.927 545.127 119.861 544.38V542.36H116.321C116.147 542.573 116.021 542.787 115.941 543C115.874 543.213 115.841 543.447 115.841 543.7C115.841 544.193 115.967 544.62 116.221 544.98C116.474 545.327 116.814 545.5 117.241 545.5ZM137.568 536.18C138.448 536.18 139.235 536.413 139.928 536.88C140.635 537.333 141.182 537.953 141.568 538.74C141.968 539.527 142.168 540.393 142.168 541.34C142.168 542.367 141.855 543.333 141.228 544.24C140.602 545.133 139.815 545.853 138.868 546.4C137.935 546.933 137.028 547.2 136.148 547.2C135.268 547.2 134.475 546.973 133.768 546.52C133.075 546.053 132.528 545.427 132.128 544.64C131.742 543.853 131.548 542.987 131.548 542.04C131.548 541.013 131.862 540.053 132.488 539.16C133.115 538.253 133.895 537.533 134.828 537C135.775 536.453 136.688 536.18 137.568 536.18ZM136.408 537.86C134.902 537.86 134.148 538.933 134.148 541.08C134.148 542.347 134.422 543.407 134.968 544.26C135.515 545.1 136.295 545.52 137.308 545.52C138.815 545.52 139.568 544.44 139.568 542.28C139.568 541.027 139.295 539.98 138.748 539.14C138.202 538.287 137.422 537.86 136.408 537.86ZM169.052 547H165.252V540.26C165.252 539.527 165.139 539.013 164.912 538.72C164.686 538.427 164.279 538.28 163.692 538.28C163.279 538.28 162.872 538.36 162.472 538.52C162.072 538.667 161.599 538.967 161.052 539.42V545.5L162.852 546.2L162.452 547H158.652V540.26C158.652 539.527 158.539 539.013 158.312 538.72C158.086 538.427 157.679 538.28 157.092 538.28C156.679 538.28 156.272 538.36 155.872 538.52C155.472 538.667 154.999 538.967 154.452 539.42V545.5L156.252 546.2L155.852 547H150.272V546.38L152.052 544.98V539.32L150.272 538.28V537.66L153.692 535.98L154.332 538.54L156.992 536.32C157.272 536.213 157.639 536.16 158.092 536.16C158.866 536.16 159.506 536.373 160.012 536.8C160.519 537.213 160.839 537.787 160.972 538.52L163.572 536.34C163.852 536.233 164.219 536.18 164.672 536.18C165.579 536.18 166.299 536.46 166.832 537.02C167.366 537.567 167.632 538.313 167.632 539.26V545.5L169.452 546.2L169.052 547ZM176.614 547H171.034V546.38L172.814 544.98V539.14L171.034 537.9V537.28L174.454 536H175.214V545.5L177.014 546.2L176.614 547ZM173.934 530C174.334 530 174.66 530.147 174.914 530.44C175.18 530.733 175.314 531.1 175.314 531.54C175.314 531.847 175.22 532.14 175.034 532.42C174.847 532.687 174.614 532.9 174.334 533.06C174.054 533.22 173.78 533.3 173.514 533.3C173.114 533.3 172.78 533.153 172.514 532.86C172.26 532.567 172.134 532.2 172.134 531.76C172.134 531.453 172.227 531.167 172.414 530.9C172.6 530.62 172.834 530.4 173.114 530.24C173.394 530.08 173.667 530 173.934 530ZM184.727 536.18C185.274 536.18 185.907 536.26 186.627 536.42C187.36 536.567 187.887 536.733 188.207 536.92V540H187.447C186.927 539.333 186.327 538.813 185.647 538.44C184.98 538.053 184.287 537.86 183.567 537.86C182.954 537.86 182.487 538.133 182.167 538.68C181.86 539.227 181.707 540.027 181.707 541.08C181.707 542.333 181.98 543.387 182.527 544.24C183.074 545.08 183.854 545.5 184.867 545.5C185.627 545.5 186.707 544.953 188.107 543.86L188.707 544.62L185.627 547.04C185.094 547.147 184.454 547.2 183.707 547.2C182.827 547.2 182.034 546.973 181.327 546.52C180.634 546.053 180.087 545.427 179.687 544.64C179.3 543.853 179.107 542.987 179.107 542.04C179.107 541.013 179.394 540.047 179.967 539.14C180.554 538.233 181.287 537.513 182.167 536.98C183.047 536.447 183.9 536.18 184.727 536.18ZM198.293 536.2C198.733 536.2 199.119 536.32 199.453 536.56C199.786 536.8 200.046 537.133 200.233 537.56L198.913 539.22H198.153C198.099 538.887 197.999 538.653 197.853 538.52C197.719 538.373 197.533 538.3 197.293 538.3C196.999 538.3 196.686 538.38 196.353 538.54C196.033 538.687 195.666 538.973 195.253 539.4V545.36L198.053 546.22L197.653 547.02H191.073V546.4L192.853 545V539.34L191.073 538.3V537.68L194.493 536L195.113 538.46L197.193 536.34C197.473 536.233 197.839 536.18 198.293 536.18V536.2ZM207.764 536.18C208.644 536.18 209.43 536.413 210.124 536.88C210.83 537.333 211.377 537.953 211.764 538.74C212.164 539.527 212.364 540.393 212.364 541.34C212.364 542.367 212.05 543.333 211.424 544.24C210.797 545.133 210.01 545.853 209.064 546.4C208.13 546.933 207.224 547.2 206.344 547.2C205.464 547.2 204.67 546.973 203.964 546.52C203.27 546.053 202.724 545.427 202.324 544.64C201.937 543.853 201.744 542.987 201.744 542.04C201.744 541.013 202.057 540.053 202.684 539.16C203.31 538.253 204.09 537.533 205.024 537C205.97 536.453 206.884 536.18 207.764 536.18ZM206.604 537.86C205.097 537.86 204.344 538.933 204.344 541.08C204.344 542.347 204.617 543.407 205.164 544.26C205.71 545.1 206.49 545.52 207.504 545.52C209.01 545.52 209.764 544.44 209.764 542.28C209.764 541.027 209.49 539.98 208.944 539.14C208.397 538.287 207.617 537.86 206.604 537.86ZM221.682 547.04C221.148 547.147 220.508 547.2 219.762 547.2C218.882 547.2 218.088 546.973 217.382 546.52C216.688 546.053 216.142 545.427 215.742 544.64C215.355 543.853 215.162 542.987 215.162 542.04C215.162 541.013 215.475 540.053 216.102 539.16C216.728 538.253 217.508 537.533 218.442 537C219.388 536.453 220.302 536.18 221.182 536.18C222.448 536.18 223.428 536.68 224.122 537.68C224.828 538.68 225.182 540 225.182 541.64H217.782C217.862 542.773 218.168 543.7 218.702 544.42C219.248 545.14 219.988 545.5 220.922 545.5C221.788 545.5 223.022 544.827 224.622 543.48L225.222 544.24L221.682 547.04ZM220.022 537.86C218.582 537.86 217.828 538.847 217.762 540.82H222.442C222.322 540.1 222.195 539.553 222.062 539.18C221.942 538.793 221.722 538.48 221.402 538.24C221.095 537.987 220.635 537.86 220.022 537.86ZM234.533 547.04C234 547.147 233.36 547.2 232.613 547.2C231.733 547.2 230.94 546.973 230.233 546.52C229.54 546.053 228.993 545.427 228.593 544.64C228.207 543.853 228.013 542.987 228.013 542.04C228.013 541.013 228.327 540.053 228.953 539.16C229.58 538.253 230.36 537.533 231.293 537C232.24 536.453 233.153 536.18 234.033 536.18C235.3 536.18 236.28 536.68 236.973 537.68C237.68 538.68 238.033 540 238.033 541.64H230.633C230.713 542.773 231.02 543.7 231.553 544.42C232.1 545.14 232.84 545.5 233.773 545.5C234.64 545.5 235.873 544.827 237.473 543.48L238.073 544.24L234.533 547.04ZM232.873 537.86C231.433 537.86 230.68 538.847 230.613 540.82H235.293C235.173 540.1 235.047 539.553 234.913 539.18C234.793 538.793 234.573 538.48 234.253 538.24C233.947 537.987 233.487 537.86 232.873 537.86ZM259.365 547H255.565V540.26C255.565 539.527 255.452 539.013 255.225 538.72C254.998 538.427 254.592 538.28 254.005 538.28C253.592 538.28 253.185 538.36 252.785 538.52C252.385 538.667 251.912 538.967 251.365 539.42V545.5L253.165 546.2L252.765 547H248.965V540.26C248.965 539.527 248.852 539.013 248.625 538.72C248.398 538.427 247.992 538.28 247.405 538.28C246.992 538.28 246.585 538.36 246.185 538.52C245.785 538.667 245.312 538.967 244.765 539.42V545.5L246.565 546.2L246.165 547H240.585V546.38L242.365 544.98V539.32L240.585 538.28V537.66L244.005 535.98L244.645 538.54L247.305 536.32C247.585 536.213 247.952 536.16 248.405 536.16C249.178 536.16 249.818 536.373 250.325 536.8C250.832 537.213 251.152 537.787 251.285 538.52L253.885 536.34C254.165 536.233 254.532 536.18 254.985 536.18C255.892 536.18 256.612 536.46 257.145 537.02C257.678 537.567 257.945 538.313 257.945 539.26V545.5L259.765 546.2L259.365 547ZM267.526 547.22C266.806 547.22 266.139 547 265.526 546.56V550.44L268.326 551.3L267.926 552.1H261.346V551.48L263.126 550.08V539.34L261.346 538.3V537.68L264.766 536L265.426 538.6L268.286 536.34C268.713 536.233 269.199 536.18 269.746 536.18C270.466 536.18 271.113 536.413 271.686 536.88C272.273 537.333 272.726 537.953 273.046 538.74C273.379 539.527 273.546 540.393 273.546 541.34C273.546 542.367 273.233 543.333 272.606 544.24C271.979 545.133 271.193 545.853 270.246 546.4C269.313 546.933 268.406 547.2 267.526 547.2V547.22ZM268.726 538.1C268.219 538.1 267.726 538.2 267.246 538.4C266.766 538.6 266.193 538.993 265.526 539.58V542.96C265.526 543.693 265.799 544.307 266.346 544.8C266.893 545.293 267.673 545.54 268.686 545.54C270.193 545.54 270.946 544.467 270.946 542.32C270.946 541.133 270.753 540.133 270.366 539.32C269.979 538.507 269.433 538.1 268.726 538.1ZM283.273 536.2C283.713 536.2 284.1 536.32 284.433 536.56C284.766 536.8 285.026 537.133 285.213 537.56L283.893 539.22H283.133C283.08 538.887 282.98 538.653 282.833 538.52C282.7 538.373 282.513 538.3 282.273 538.3C281.98 538.3 281.666 538.38 281.333 538.54C281.013 538.687 280.646 538.973 280.233 539.4V545.36L283.033 546.22L282.633 547.02H276.053V546.4L277.833 545V539.34L276.053 538.3V537.68L279.473 536L280.093 538.46L282.173 536.34C282.453 536.233 282.82 536.18 283.273 536.18V536.2ZM293.244 547.04C292.711 547.147 292.071 547.2 291.324 547.2C290.444 547.2 289.651 546.973 288.944 546.52C288.251 546.053 287.704 545.427 287.304 544.64C286.918 543.853 286.724 542.987 286.724 542.04C286.724 541.013 287.038 540.053 287.664 539.16C288.291 538.253 289.071 537.533 290.004 537C290.951 536.453 291.864 536.18 292.744 536.18C294.011 536.18 294.991 536.68 295.684 537.68C296.391 538.68 296.744 540 296.744 541.64H289.344C289.424 542.773 289.731 543.7 290.264 544.42C290.811 545.14 291.551 545.5 292.484 545.5C293.351 545.5 294.584 544.827 296.184 543.48L296.784 544.24L293.244 547.04ZM291.584 537.86C290.144 537.86 289.391 538.847 289.324 540.82H294.004C293.884 540.1 293.758 539.553 293.624 539.18C293.504 538.793 293.284 538.48 292.964 538.24C292.658 537.987 292.198 537.86 291.584 537.86ZM311.656 547.02H307.856V540.28C307.856 539.547 307.742 539.033 307.516 538.74C307.289 538.447 306.882 538.3 306.296 538.3C305.856 538.3 305.416 538.38 304.976 538.54C304.549 538.7 304.042 539.007 303.456 539.46V545.52L305.256 546.22L304.856 547.02H299.276V546.4L301.056 545V539.34L299.276 538.3V537.68L302.696 536L303.356 538.6L306.196 536.34C306.476 536.233 306.842 536.18 307.296 536.18C308.202 536.18 308.922 536.46 309.456 537.02C309.989 537.567 310.256 538.313 310.256 539.26V545.5L312.056 546.22L311.656 547.02ZM325.731 547H321.931V545.56L320.071 547.04C319.644 547.147 319.131 547.2 318.531 547.2C317.651 547.2 316.857 546.973 316.151 546.52C315.457 546.053 314.911 545.427 314.511 544.64C314.124 543.853 313.931 542.987 313.931 542.04C313.931 541.013 314.244 540.053 314.871 539.16C315.497 538.253 316.277 537.533 317.211 537C318.157 536.453 319.071 536.18 319.951 536.18C320.684 536.18 321.351 536.387 321.951 536.8V532.68L320.171 531.44V530.82L323.591 529.54H324.351V545.5L326.131 546.2L325.731 547ZM319.551 545.5C319.951 545.5 320.331 545.447 320.691 545.34C321.064 545.22 321.477 545 321.931 544.68V540.12C321.851 539.453 321.537 538.913 320.991 538.5C320.457 538.073 319.724 537.86 318.791 537.86C317.284 537.86 316.531 538.933 316.531 541.08C316.531 542.333 316.791 543.387 317.311 544.24C317.831 545.08 318.577 545.5 319.551 545.5ZM334.572 547.04C334.039 547.147 333.399 547.2 332.652 547.2C331.772 547.2 330.979 546.973 330.272 546.52C329.579 546.053 329.032 545.427 328.632 544.64C328.246 543.853 328.052 542.987 328.052 542.04C328.052 541.013 328.366 540.053 328.992 539.16C329.619 538.253 330.399 537.533 331.332 537C332.279 536.453 333.192 536.18 334.072 536.18C335.339 536.18 336.319 536.68 337.012 537.68C337.719 538.68 338.072 540 338.072 541.64H330.672C330.752 542.773 331.059 543.7 331.592 544.42C332.139 545.14 332.879 545.5 333.812 545.5C334.679 545.5 335.912 544.827 337.512 543.48L338.112 544.24L334.572 547.04ZM332.912 537.86C331.472 537.86 330.719 538.847 330.652 540.82H335.332C335.212 540.1 335.086 539.553 334.952 539.18C334.832 538.793 334.612 538.48 334.292 538.24C333.986 537.987 333.526 537.86 332.912 537.86ZM352.684 547H348.884V545.56L347.024 547.04C346.597 547.147 346.084 547.2 345.484 547.2C344.604 547.2 343.811 546.973 343.104 546.52C342.411 546.053 341.864 545.427 341.464 544.64C341.077 543.853 340.884 542.987 340.884 542.04C340.884 541.013 341.197 540.053 341.824 539.16C342.451 538.253 343.231 537.533 344.164 537C345.111 536.453 346.024 536.18 346.904 536.18C347.637 536.18 348.304 536.387 348.904 536.8V532.68L347.124 531.44V530.82L350.544 529.54H351.304V545.5L353.084 546.2L352.684 547ZM346.504 545.5C346.904 545.5 347.284 545.447 347.644 545.34C348.017 545.22 348.431 545 348.884 544.68V540.12C348.804 539.453 348.491 538.913 347.944 538.5C347.411 538.073 346.677 537.86 345.744 537.86C344.237 537.86 343.484 538.933 343.484 541.08C343.484 542.333 343.744 543.387 344.264 544.24C344.784 545.08 345.531 545.5 346.504 545.5ZM361.025 536.18C361.905 536.18 362.692 536.413 363.385 536.88C364.092 537.333 364.639 537.953 365.025 538.74C365.425 539.527 365.625 540.393 365.625 541.34C365.625 542.367 365.312 543.333 364.685 544.24C364.059 545.133 363.272 545.853 362.325 546.4C361.392 546.933 360.485 547.2 359.605 547.2C358.725 547.2 357.932 546.973 357.225 546.52C356.532 546.053 355.985 545.427 355.585 544.64C355.199 543.853 355.005 542.987 355.005 542.04C355.005 541.013 355.319 540.053 355.945 539.16C356.572 538.253 357.352 537.533 358.285 537C359.232 536.453 360.145 536.18 361.025 536.18ZM359.865 537.86C358.359 537.86 357.605 538.933 357.605 541.08C357.605 542.347 357.879 543.407 358.425 544.26C358.972 545.1 359.752 545.52 360.765 545.52C362.272 545.52 363.025 544.44 363.025 542.28C363.025 541.027 362.752 539.98 362.205 539.14C361.659 538.287 360.879 537.86 359.865 537.86ZM375.343 536.2C375.783 536.2 376.17 536.32 376.503 536.56C376.837 536.8 377.097 537.133 377.283 537.56L375.963 539.22H375.203C375.15 538.887 375.05 538.653 374.903 538.52C374.77 538.373 374.583 538.3 374.343 538.3C374.05 538.3 373.737 538.38 373.403 538.54C373.083 538.687 372.717 538.973 372.303 539.4V545.36L375.103 546.22L374.703 547.02H368.123V546.4L369.903 545V539.34L368.123 538.3V537.68L371.543 536L372.163 538.46L374.243 536.34C374.523 536.233 374.89 536.18 375.343 536.18V536.2ZM391.88 536.18C392.6 536.18 393.247 536.413 393.82 536.88C394.407 537.333 394.86 537.953 395.18 538.74C395.514 539.527 395.68 540.393 395.68 541.34C395.68 542.367 395.367 543.333 394.74 544.24C394.114 545.133 393.327 545.853 392.38 546.4C391.447 546.933 390.54 547.2 389.66 547.2C389.114 547.2 388.6 547.08 388.12 546.84C387.654 546.6 387.24 546.26 386.88 545.82L386.02 547H385.26V532.68L383.48 531.44V530.82L386.9 529.54H387.66V538.46L390.34 536.34C390.767 536.233 391.28 536.18 391.88 536.18ZM390.82 545.52C392.327 545.52 393.08 544.447 393.08 542.3C393.08 541.06 392.887 540.013 392.5 539.16C392.114 538.307 391.567 537.88 390.86 537.88C390.354 537.88 389.86 537.98 389.38 538.18C388.9 538.38 388.327 538.773 387.66 539.36V542.94C387.66 543.673 387.934 544.287 388.48 544.78C389.027 545.273 389.807 545.52 390.82 545.52ZM405.402 536.2C405.842 536.2 406.229 536.32 406.562 536.56C406.895 536.8 407.155 537.133 407.342 537.56L406.022 539.22H405.262C405.209 538.887 405.109 538.653 404.962 538.52C404.829 538.373 404.642 538.3 404.402 538.3C404.109 538.3 403.795 538.38 403.462 538.54C403.142 538.687 402.775 538.973 402.362 539.4V545.36L405.162 546.22L404.762 547.02H398.182V546.4L399.962 545V539.34L398.182 538.3V537.68L401.602 536L402.222 538.46L404.302 536.34C404.582 536.233 404.949 536.18 405.402 536.18V536.2ZM418.778 547H414.978V545.26L412.718 547.04C412.451 547.147 412.118 547.2 411.718 547.2C410.571 547.2 409.738 546.913 409.218 546.34C408.711 545.767 408.458 545.08 408.458 544.28C408.458 543.8 408.631 543.327 408.978 542.86C409.324 542.393 409.818 541.953 410.458 541.54H414.978V540.26C414.978 539.393 414.744 538.78 414.278 538.42C413.824 538.06 413.198 537.88 412.398 537.88C411.571 537.88 410.558 538.38 409.358 539.38L408.758 538.62L411.638 536.34C412.171 536.233 412.811 536.18 413.558 536.18C414.771 536.18 415.711 536.48 416.378 537.08C417.044 537.667 417.378 538.527 417.378 539.66V545.5L419.178 546.2L418.778 547ZM412.358 545.5C413.171 545.5 414.044 545.127 414.978 544.38V542.36H411.438C411.264 542.573 411.138 542.787 411.058 543C410.991 543.213 410.958 543.447 410.958 543.7C410.958 544.193 411.084 544.62 411.338 544.98C411.591 545.327 411.931 545.5 412.358 545.5ZM427.22 544.84C427.22 544.467 427.013 544.127 426.6 543.82C426.186 543.5 425.553 543.12 424.7 542.68C424.006 542.32 423.446 542.007 423.02 541.74C422.593 541.473 422.226 541.167 421.92 540.82C421.626 540.46 421.48 540.073 421.48 539.66C421.48 539.18 421.68 538.667 422.08 538.12C422.48 537.573 422.973 537.113 423.56 536.74C424.146 536.367 424.693 536.18 425.2 536.18C425.813 536.18 426.52 536.26 427.32 536.42C428.133 536.567 428.72 536.733 429.08 536.92V540H428.32C427.893 539.173 427.4 538.533 426.84 538.08C426.28 537.613 425.706 537.38 425.12 537.38C424.706 537.38 424.373 537.493 424.12 537.72C423.866 537.933 423.74 538.207 423.74 538.54C423.74 538.953 423.953 539.327 424.38 539.66C424.82 539.98 425.48 540.36 426.36 540.8C427.04 541.147 427.586 541.447 428 541.7C428.413 541.953 428.76 542.253 429.04 542.6C429.333 542.933 429.48 543.307 429.48 543.72C429.48 544.213 429.266 544.733 428.84 545.28C428.426 545.813 427.913 546.267 427.3 546.64C426.7 547.013 426.146 547.2 425.64 547.2C424.986 547.2 424.206 547.127 423.3 546.98C422.406 546.82 421.766 546.647 421.38 546.46V543.38H422.14C422.606 544.207 423.16 544.853 423.8 545.32C424.44 545.773 425.086 546 425.74 546C426.18 546 426.533 545.887 426.8 545.66C427.08 545.433 427.22 545.16 427.22 544.84ZM437.532 547H431.952V546.38L433.732 544.98V539.14L431.952 537.9V537.28L435.372 536H436.132V545.5L437.932 546.2L437.532 547ZM434.852 530C435.252 530 435.578 530.147 435.832 530.44C436.098 530.733 436.232 531.1 436.232 531.54C436.232 531.847 436.138 532.14 435.952 532.42C435.765 532.687 435.532 532.9 435.252 533.06C434.972 533.22 434.698 533.3 434.432 533.3C434.032 533.3 433.698 533.153 433.432 532.86C433.178 532.567 433.052 532.2 433.052 531.76C433.052 531.453 433.145 531.167 433.332 530.9C433.518 530.62 433.752 530.4 434.032 530.24C434.312 530.08 434.585 530 434.852 530ZM444.905 547H439.325V546.38L441.105 544.98V532.68L439.325 531.44V530.82L442.745 529.54H443.505V545.5L445.305 546.2L444.905 547ZM453.928 547.04C453.394 547.147 452.754 547.2 452.008 547.2C451.128 547.2 450.334 546.973 449.628 546.52C448.934 546.053 448.388 545.427 447.988 544.64C447.601 543.853 447.408 542.987 447.408 542.04C447.408 541.013 447.721 540.053 448.348 539.16C448.974 538.253 449.754 537.533 450.688 537C451.634 536.453 452.548 536.18 453.428 536.18C454.694 536.18 455.674 536.68 456.368 537.68C457.074 538.68 457.428 540 457.428 541.64H450.028C450.108 542.773 450.414 543.7 450.948 544.42C451.494 545.14 452.234 545.5 453.168 545.5C454.034 545.5 455.268 544.827 456.868 543.48L457.468 544.24L453.928 547.04ZM452.268 537.86C450.828 537.86 450.074 538.847 450.008 540.82H454.688C454.568 540.1 454.441 539.553 454.308 539.18C454.188 538.793 453.968 538.48 453.648 538.24C453.341 537.987 452.881 537.86 452.268 537.86ZM465.539 547H459.959V546.38L461.739 544.98V539.14L459.959 537.9V537.28L463.379 536H464.139V545.5L465.939 546.2L465.539 547ZM462.859 530C463.259 530 463.586 530.147 463.839 530.44C464.106 530.733 464.239 531.1 464.239 531.54C464.239 531.847 464.146 532.14 463.959 532.42C463.773 532.687 463.539 532.9 463.259 533.06C462.979 533.22 462.706 533.3 462.439 533.3C462.039 533.3 461.706 533.153 461.439 532.86C461.186 532.567 461.059 532.2 461.059 531.76C461.059 531.453 461.153 531.167 461.339 530.9C461.526 530.62 461.759 530.4 462.039 530.24C462.319 530.08 462.593 530 462.859 530ZM474.953 536.2C475.393 536.2 475.779 536.32 476.113 536.56C476.446 536.8 476.706 537.133 476.893 537.56L475.573 539.22H474.813C474.759 538.887 474.659 538.653 474.513 538.52C474.379 538.373 474.193 538.3 473.953 538.3C473.659 538.3 473.346 538.38 473.013 538.54C472.693 538.687 472.326 538.973 471.913 539.4V545.36L474.713 546.22L474.313 547.02H467.733V546.4L469.513 545V539.34L467.733 538.3V537.68L471.153 536L471.773 538.46L473.853 536.34C474.133 536.233 474.499 536.18 474.953 536.18V536.2ZM484.424 536.18C485.304 536.18 486.091 536.413 486.784 536.88C487.491 537.333 488.037 537.953 488.424 538.74C488.824 539.527 489.024 540.393 489.024 541.34C489.024 542.367 488.711 543.333 488.084 544.24C487.457 545.133 486.671 545.853 485.724 546.4C484.791 546.933 483.884 547.2 483.004 547.2C482.124 547.2 481.331 546.973 480.624 546.52C479.931 546.053 479.384 545.427 478.984 544.64C478.597 543.853 478.404 542.987 478.404 542.04C478.404 541.013 478.717 540.053 479.344 539.16C479.971 538.253 480.751 537.533 481.684 537C482.631 536.453 483.544 536.18 484.424 536.18ZM483.264 537.86C481.757 537.86 481.004 538.933 481.004 541.08C481.004 542.347 481.277 543.407 481.824 544.26C482.371 545.1 483.151 545.52 484.164 545.52C485.671 545.52 486.424 544.44 486.424 542.28C486.424 541.027 486.151 539.98 485.604 539.14C485.057 538.287 484.277 537.86 483.264 537.86ZM493.416 543.9C493.816 543.9 494.143 544.047 494.396 544.34C494.663 544.633 494.796 545 494.796 545.44C494.796 545.747 494.703 546.04 494.516 546.32C494.33 546.587 494.096 546.8 493.816 546.96C493.536 547.12 493.263 547.2 492.996 547.2C492.596 547.2 492.263 547.053 491.996 546.76C491.743 546.467 491.616 546.1 491.616 545.66C491.616 545.353 491.71 545.067 491.896 544.8C492.083 544.52 492.316 544.3 492.596 544.14C492.876 543.98 493.15 543.9 493.416 543.9Z" fill="black"/>
<defs>
<linearGradient id="paint0_linear_77_40" x1="239.5" y1="0" x2="239.5" y2="368" gradientUnits="userSpaceOnUse">
<stop offset="0.283654" stop-color="#151677"/>
<stop offset="1" stop-color="#2629DD"/>
</linearGradient>
</defs>
</svg>
