<svg width="1410" height="1453" viewBox="0 0 1410 1453" fill="none" xmlns="http://www.w3.org/2000/svg">
<path d="M52.6271 733.065C-24.1076 1379.59 647.752 1522.67 907.443 1425.32C312.318 1317.16 279.724 980.65 269.037 884.496C258.216 787.147 269.036 646.532 312.318 776.331C360.222 919.991 994.007 1576.75 1286.16 1154.91C1519.88 817.433 1394.36 457.694 1145.49 343.67C1232.06 383.331 1346.75 523.224 1113.03 765.514C879.31 1007.8 420.523 668.166 474.625 527.551C593.65 549.184 760.016 665.461 885.802 581.633C1080.57 451.835 1167.13 322.037 939.905 224.689C691.034 118.069 128.37 94.8903 52.6271 733.065Z" fill="url(#paint0_linear_170_40)"/>
<path d="M202.146 486.743V0H284.775V486.743H202.146ZM0 284.671V202.072H486.921V284.671H0Z" fill="white"/>
<defs>
<linearGradient id="paint0_linear_170_40" x1="705" y1="0" x2="705" y2="1453" gradientUnits="userSpaceOnUse">
<stop offset="1" stop-color="white"/>
</linearGradient>
</defs>
</svg>
