<svg width="270" height="279" viewBox="0 0 270 279" fill="none" xmlns="http://www.w3.org/2000/svg">
<path d="M106.533 253.143C72.4862 236.577 86.4047 206.088 97.6197 192.914C93.5026 158.042 74.6589 95.0402 32.2212 122.014C-10.2165 148.987 41.7562 224.957 73.0473 259.571C98.3953 264.331 140.58 269.709 106.533 253.143Z" fill="#D9D9D9"/>
<path d="M69.5887 95.355C91.1266 118.91 142.818 174.854 166.509 161.604C193.131 146.715 197.904 92.1946 191.174 60.0222C180.799 78.4247 155.74 110.813 138.51 93.1467C121.28 75.4803 85.3832 93.1467 69.5887 95.355Z" fill="#D9D9D9"/>
<path d="M10.0775 140.761C-4.61634 264.905 124.038 292.378 173.766 273.685C59.8056 252.916 53.5642 188.301 51.5177 169.838C49.4456 151.145 51.5175 124.145 59.8056 149.068C68.9787 176.653 190.342 302.763 246.286 221.762C291.041 156.961 267.006 87.8848 219.35 65.9903C235.926 73.6058 257.889 100.468 213.134 146.991C168.379 193.515 80.5256 128.299 90.8857 101.298C113.678 105.452 145.535 127.779 169.622 111.683C206.918 86.7598 223.494 61.8364 179.982 43.1439C132.326 22.6711 24.5815 18.2205 10.0775 140.761Z" fill="url(#paint0_linear_52_1461)"/>
<path d="M193.097 191.006C195.636 185.812 204.484 184.937 212.862 189.051C221.241 193.166 225.976 200.712 223.437 205.906C220.895 211.096 212.044 211.974 203.668 207.861C195.293 203.748 190.563 196.2 193.097 191.006Z" fill="#D9D9D9"/>
<path d="M38.7088 93.4627V0H54.5314V93.4627H38.7088ZM0 54.6615V38.8012H93.2402V54.6615H0Z" fill="white"/>
<defs>
<linearGradient id="paint0_linear_52_1461" x1="135" y1="0" x2="135" y2="279" gradientUnits="userSpaceOnUse">
<stop offset="0.283654" stop-color="#151677"/>
<stop offset="1" stop-color="#2629DD"/>
</linearGradient>
</defs>
</svg>
